<svg width="255" height="258" viewBox="0 0 255 258" fill="none" xmlns="http://www.w3.org/2000/svg">
<path d="M120 37H203V236H120V37Z" fill="#82A9FF" fill-opacity="0.21"/>
<path d="M69.5057 79.0001C83.5858 79.0001 95 67.4901 95 53.2917C95 39.0933 83.5858 27.5833 69.5057 27.5833C55.4256 27.5833 44.0114 39.0933 44.0114 53.2917C44.0114 67.4901 55.4256 79.0001 69.5057 79.0001Z" fill="#F3F2FF"/>
<path d="M69.5057 53.2915L71.6404 78.9077C70.939 78.9692 70.2071 78.9999 69.5057 78.9999C55.4168 78.9999 44.0114 67.4988 44.0114 53.2915H69.5057Z" fill="#B5B9FF"/>
<path d="M69.5057 53.2917H44.0114C44.0114 48.6175 45.2618 44.22 47.4269 40.4375L69.5057 53.2917Z" fill="#D9DAFF"/>
<path d="M69.2618 53.7221L44.9568 39.5763L45.2008 39.1458C47.6709 34.8405 51.2389 31.2733 55.5083 28.7825C59.6252 26.3838 64.413 25 69.5057 25H69.9937V54.1219L69.2618 53.7221ZM46.2681 39.2073L69.0178 52.4613V25.9841C64.2605 26.0763 59.8081 27.3679 55.9657 29.6128C52.0013 31.9191 48.6468 35.2403 46.2681 39.2073Z" fill="white"/>
<path d="M54.3494 35.794L45.5667 30.6892H11.5032V29.8281H45.7802L54.7763 35.0559L54.3494 35.794Z" fill="#EEEDFF"/>
<path d="M45.8412 51.139L38.8577 49.2631H11.4117V48.4021H38.9797L46.0546 50.3087L45.8412 51.139Z" fill="#EEEDFF"/>
<path d="M52.1842 70.1126L49.6226 72.6958H10.8018V71.8655H49.2872L51.6048 69.5283L52.1842 70.1126Z" fill="#EEEDFF"/>
<path d="M5.58704 27.2756H9.45998C9.70394 27.2756 9.91741 27.4909 9.91741 27.7369V31.6424C9.91741 31.8884 9.70394 32.1037 9.45998 32.1037H5.58704C5.34308 32.1037 5.12961 31.8884 5.12961 31.6424V27.7369C5.12961 27.4909 5.31258 27.2756 5.58704 27.2756Z" fill="#EEEDFF"/>
<path d="M0.768743 46.7107H4.64168C4.88564 46.7107 5.09911 46.926 5.09911 47.172V51.0774C5.09911 51.3234 4.88564 51.5387 4.64168 51.5387H0.768743C0.524779 51.5387 0.31131 51.3234 0.31131 51.0774V47.172C0.31131 46.926 0.524779 46.7107 0.768743 46.7107Z" fill="#D9DAFF"/>
<path d="M4.97713 69.344H8.85007C9.09403 69.344 9.3075 69.5593 9.3075 69.8053V73.7107C9.3075 73.9567 9.09403 74.172 8.85007 74.172H4.97713C4.73317 74.172 4.5197 73.9567 4.5197 73.7107V69.8053C4.5197 69.5593 4.70267 69.344 4.97713 69.344Z" fill="#B5B9FF"/>
<path d="M233.952 0.000129866C233.952 0.000129866 235.272 20.4338 202.896 51.8286C202.896 51.8286 202.919 61.4408 201.475 62.9757C200.031 64.5106 191.723 72.2159 191.723 72.2159C191.723 72.2159 190.401 72.8011 190.023 71.716C189.646 70.6308 187.911 61.8638 187.911 61.8638L187.066 63.5313C187.066 63.5313 184.52 64.649 179.373 59.6639C179.373 59.6639 177.601 61.8556 175.668 61.8602C175.565 59.9705 177.641 58.0192 177.641 58.0192C172.398 53.1365 173.365 50.5192 173.365 50.5192L174.974 49.5773C174.974 49.5773 166.116 48.3328 165.066 48.0137C163.967 47.6961 164.474 46.337 164.474 46.337C164.474 46.337 171.662 37.5675 173.106 36.0326C174.549 34.4976 184.102 33.9794 184.102 33.9794C213.423 -0.267947 233.952 0.000129866 233.952 0.000129866Z" fill="white"/>
<path d="M233.952 0.00018231C233.952 0.00018231 235.271 20.4339 202.895 51.8286C202.895 51.8286 202.919 61.4408 201.475 62.9758C200.031 64.5107 191.722 72.216 191.722 72.216C191.722 72.216 190.4 72.8011 190.023 71.716C189.645 70.6309 187.911 61.8638 187.911 61.8638L187.066 63.5313C187.066 63.5313 185.401 64.2755 182.064 61.929C209.976 49.7862 233.952 0.00018231 233.952 0.00018231Z" fill="#DBD9FF"/>
<path d="M188.228 60.809C186.025 60.0244 183.808 58.7421 181.827 57.0546C187.454 50.9191 195.683 40.377 195.683 40.377C190.117 45.166 183.563 51.8257 180.095 55.41C178.359 53.616 176.911 51.4653 175.951 49.0518L174.973 49.5277L173.363 50.4696C173.363 50.4696 172.396 53.0868 177.64 57.9696C177.64 57.9696 175.562 59.871 175.666 61.8106C177.549 61.8073 179.371 59.6142 179.371 59.6142C184.518 64.5993 187.064 63.4816 187.064 63.4816L187.91 61.8141L188.228 60.809Z" fill="#6DED02"/>
<path d="M188.228 60.8089L187.911 61.8638C187.911 61.8638 189.647 70.6806 190.023 71.7159C190.4 72.8011 191.722 72.2159 191.722 72.2159C191.722 72.2159 200.031 64.5106 201.475 62.9757C202.919 61.4407 202.895 51.8286 202.895 51.8286C200.098 54.597 189.928 61.3088 189.928 61.3088C189.329 61.1763 188.779 60.9926 188.228 60.8089Z" fill="#6DED02"/>
<path d="M215.01 6.8097C219.701 13.2023 224.768 17.0939 228.247 19.1873C234.399 7.06012 233.952 5.15999e-05 233.952 5.15999e-05C233.952 5.15999e-05 226.861 -0.0989164 215.01 6.8097Z" fill="#6DED02"/>
<path d="M209.386 25.3473C211.474 27.3306 211.568 30.665 209.597 32.8125C209.019 33.4265 208.289 33.8953 207.503 34.1665C208.488 33.9395 209.465 33.4139 210.187 32.6464C212.16 30.5487 212.066 27.2143 209.976 25.1813C208.499 23.7785 206.456 23.3878 204.64 24.0367C206.314 23.6408 208.062 24.0896 209.386 25.3473Z" fill="#DBD9FF"/>
<path d="M211.102 33.4674C208.648 36.0767 204.537 36.1926 201.939 33.7256C200.462 32.3228 199.813 30.3986 199.91 28.553C199.425 30.7084 200.085 33.0308 201.768 34.6768C204.365 37.1438 208.476 37.0279 210.931 34.4185C211.989 33.2929 212.594 31.8813 212.702 30.4338C212.484 31.4859 211.919 32.5478 211.102 33.4674Z" fill="#DBD9FF"/>
<path d="M183.753 58.5442L196.16 39.7159L194.813 41.1982C195.104 40.941 195.394 40.6838 195.684 40.4266C195.684 40.4266 187.454 50.9189 181.828 57.1042C182.437 57.5851 183.095 58.0646 183.753 58.5442Z" fill="#DBD9FF"/>
<path d="M180.787 34.2221L172.185 49.1079C173.778 49.3619 175.022 49.5261 175.022 49.5261L176 49.0502C175.788 48.5581 175.624 48.0149 175.46 47.4716C176.453 44.0069 184.149 33.9281 184.149 33.9281C184.149 33.9281 182.617 34.0709 180.787 34.2221Z" fill="#2F70FE"/>
<path d="M202.895 51.8285C200.098 54.5969 189.928 61.3088 189.928 61.3088C189.379 61.1748 188.828 60.9911 188.278 60.8074L187.96 61.8623C187.96 61.8623 188.366 63.9428 188.825 66.1712L202.868 54.3694C202.875 52.875 202.895 51.8285 202.895 51.8285Z" fill="#2F70FE"/>
<path d="M175.553 33.1741C175.553 33.1741 152.051 52.3151 140.718 70.5652C140.768 70.5638 149.411 48.3551 175.553 33.1741Z" fill="white"/>
<path fill-rule="evenodd" clip-rule="evenodd" d="M154.459 234.549C167.476 237.978 189.842 239.13 218.322 238.952C244.754 238.971 255.344 241.689 254.948 246.463C251.881 253.866 208.181 257.652 133.18 257.809C71.2648 258.002 42.4015 253.564 34.0642 245.892C21.4019 232.679 114.54 224.209 154.459 234.549Z" fill="url(#paint0_linear_0_1)"/>
<path d="M127.51 15.0364C127.51 15.0364 138.394 13.5226 140.58 12.0087C140.58 12.0087 145.099 12.0087 145.487 14.1086C145.487 14.1086 142.864 17.2828 146.168 22.2638C146.168 22.2638 146.653 20.0663 148.646 19.8709L148.354 12.1064C148.354 12.1064 148.84 6.97889 144.321 4.92788C139.803 2.87688 129.891 4.63488 127.17 7.76023L126.15 10.7879H125.324C125.324 10.7391 124.109 14.5969 127.51 15.0364Z" fill="url(#paint1_linear_0_1)"/>
<path d="M139.171 49.4152L134.215 44.3365L130.814 46.827C129.454 48.3409 119.979 59.2308 119.202 68.6068C118.376 78.7154 119.202 99.5184 116.481 109.383C116.238 110.311 115.995 111.19 115.752 112.069C117.355 112.801 119.639 113.631 122.068 113.827C125.664 114.071 136.013 113.485 140.92 113.143C138.394 104.695 135.576 92.8771 135.138 80.6687C134.555 64.4071 141.843 48.8781 146.216 41.1135L139.171 49.4152Z" fill="white"/>
<path d="M146.168 41.0645C141.795 48.8779 134.507 64.3581 135.09 80.6197C135.527 92.8281 138.345 104.646 140.872 113.094C141.989 116.757 143.009 119.784 143.835 121.933L146.751 121.542C146.751 121.542 146.751 121.542 146.799 121.493C148.111 120.419 149.326 119.296 150.443 118.026C160.306 106.795 160.841 89.0191 160.841 89.0191C152.63 54.8844 162.541 44.6782 162.541 44.6782C162.541 44.6782 154.33 41.1622 149.423 35.8394C149.374 35.8882 148.062 37.7927 146.168 41.0645Z" fill="#36336B"/>
<path d="M143.69 121.493C143.738 121.689 143.835 121.835 143.884 121.982L146.799 121.591C146.799 121.591 146.799 121.591 146.848 121.542C148.16 120.468 149.374 119.345 150.492 118.075C160.355 106.843 160.889 89.0679 160.889 89.0679C155.545 66.751 157.877 54.6891 160.161 48.9756C160.161 48.9756 152.144 59.6701 154.379 99.9578C154.33 99.9578 154.865 113.875 143.69 121.493Z" fill="#27254D"/>
<path d="M162.493 44.7271C162.493 44.7271 152.581 54.9333 160.792 89.0679C160.792 89.0679 160.258 106.843 150.395 118.075C153.213 119.882 157.926 122.519 162.104 123.203C164.339 120.126 166.671 116.708 167.303 115.194L175.951 95.1233C175.951 95.1233 171.044 61.4281 171.044 48.1454C171.093 48.1454 168.032 45.8991 162.493 44.7271Z" fill="#36336B"/>
<path d="M154.816 120.614C157.1 121.786 159.723 122.812 162.153 123.251C164.388 120.175 166.72 116.757 167.352 115.243L176 95.1722C176 95.1722 171.093 61.4771 171.093 48.1943C171.093 48.1943 169.587 47.12 166.817 46.0457C168.177 54.0055 169.392 64.7489 167.06 68.0696C163.222 73.5389 176.972 86.3821 171.287 93.463C167.254 98.4929 157.78 111.092 154.816 120.614Z" fill="#27254D"/>
<path d="M117.064 63.284C117.064 63.284 114.829 81.1571 113.517 85.9916C113.517 85.9916 107.395 104.793 108.756 128.135L110.893 127.988C110.893 127.988 113.274 120.81 115.752 112.069C115.995 111.19 116.238 110.311 116.481 109.383C119.202 99.5185 118.327 78.7154 119.202 68.6069C119.979 59.182 129.454 48.3409 130.814 46.8271C130.911 46.7294 130.96 46.6318 130.96 46.6318L131.494 42.7739C130.523 43.4088 122.117 48.9758 120.854 50.1966C120.028 51.0268 118.91 57.5705 117.064 63.284Z" fill="#36336B"/>
<path d="M113.517 85.9915C114.829 81.157 117.064 63.2839 117.064 63.2839C116.044 66.5069 114.732 69.437 113.128 71.0485C113.128 71.0485 102.245 71.2926 94.6168 65.8721C94.6168 65.8721 92.4789 68.4115 92.1388 73.8808L93.2563 79.1548C93.2563 79.2037 106.229 86.8705 113.517 85.9915Z" fill="#36336B"/>
<path d="M113.517 85.9915C114.829 81.157 117.064 63.2839 117.064 63.2839C116.044 66.5069 114.732 69.437 113.128 71.0485C113.128 71.0485 113.711 78.1782 112.059 82.036C112.059 82.036 99.2811 79.8873 92.5275 75.5412L93.2563 79.1548C93.2563 79.2037 106.229 86.8705 113.517 85.9915Z" fill="#27254D"/>
<path d="M78.578 60.4595L81.7296 60.4194C81.7268 60.4952 81.7117 60.5637 81.6918 60.6237C81.6843 60.6462 81.6762 60.6672 81.668 60.6866L79.0733 61.1833C78.9463 61.066 78.8227 60.9458 78.7191 60.8378C78.6425 60.7579 78.5821 60.6903 78.541 60.639C78.5325 60.6284 78.5257 60.6196 78.5203 60.6125C78.5277 60.5799 78.5434 60.5341 78.5693 60.478C78.5722 60.4718 78.5751 60.4657 78.578 60.4595ZM78.5158 60.6418C78.5157 60.6418 78.5157 60.6408 78.5159 60.6388C78.5159 60.6407 78.5158 60.6417 78.5158 60.6418Z" fill="white" stroke="black"/>
<path d="M115.752 112.069C113.274 120.81 110.893 127.988 110.893 127.988C110.893 127.988 104.14 153.87 103.945 176.871C103.945 176.871 116.675 196.306 114.635 227.462C114.635 227.462 120.125 233.518 129.211 230.685C129.211 230.685 130.328 187.858 122.506 176.968C122.506 176.968 124.352 164.369 129.114 160.121C129.114 160.121 130.474 175.455 135.381 183.121C135.381 183.121 143.204 212.275 136.402 231.662C136.402 231.662 136.402 232.101 136.304 232.785C139.803 235.422 148.062 235.666 148.062 235.666C148.062 235.666 162.979 200.311 149.229 173.55C149.229 173.55 147.868 148.84 155.01 132.676L152.484 132.969C150.152 135.069 148.014 135.997 148.014 135.997L142.135 126.426C142.135 126.426 142.086 126.426 138.394 126.963C134.701 127.5 135.478 125.302 135.478 125.302C137.373 125.107 142.572 122.177 142.572 122.177L143.884 121.982C143.107 119.833 142.038 116.805 140.92 113.143C136.061 113.485 125.664 114.071 122.068 113.827C119.59 113.631 117.307 112.801 115.752 112.069Z" fill="#36336B"/>
<path d="M144.807 235.324C146.653 235.569 148.014 235.569 148.014 235.569C148.014 235.569 162.93 200.213 149.18 173.452C149.18 173.452 147.82 148.743 154.962 132.579L152.435 132.872C150.589 134.532 148.888 135.46 148.257 135.802C145.779 143.713 142.524 157.972 144.71 173.257C144.71 173.257 154.427 211.494 144.71 234.592C144.71 234.641 144.759 234.885 144.807 235.324Z" fill="#27254D"/>
<path d="M124.546 231.369C125.955 231.369 127.51 231.125 129.211 230.588C129.211 230.588 130.328 187.761 122.506 176.871C122.506 176.871 124.352 164.272 129.114 160.023C129.114 160.023 127.947 140.734 128.142 134.581C128.142 134.581 115.898 154.7 117.987 175.113C117.939 175.161 124.886 208.417 124.546 231.369Z" fill="#27254D"/>
<path d="M148.014 235.569C148.014 235.569 139.754 235.325 136.256 232.688C135.964 234.446 134.75 237.815 130.377 239.573C129.405 241.722 126.247 244.017 126.247 244.017C126.247 244.017 120.805 245.433 120.465 247.484C120.174 249.584 120.125 249.828 120.125 249.828C120.125 249.828 138.248 253.539 143.981 247.679L144.176 248.217C144.176 248.217 148.403 248.412 149.471 246.752C149.471 246.752 150.832 239.231 148.014 235.569Z" fill="#36336B"/>
<path d="M148.014 235.569C148.014 235.569 146.653 235.52 144.807 235.325C143.641 235.178 142.329 234.983 141.017 234.641C139.22 234.201 137.47 233.567 136.304 232.688C136.207 233.225 136.013 233.908 135.721 234.641C135.624 234.836 135.527 235.08 135.43 235.276C135.527 235.373 135.624 235.422 135.721 235.52C137.47 236.838 140.386 238.206 145.293 238.596C145.585 241.233 145.876 244.847 145.633 248.217C146.945 248.119 148.84 247.826 149.471 246.8C149.471 246.752 150.832 239.231 148.014 235.569Z" fill="#27254D"/>
<path d="M130.377 239.573C130.523 238.108 129.211 230.636 129.211 230.636C120.125 233.469 114.635 227.413 114.635 227.413C114.635 227.413 111.768 237.815 103.362 238.645C94.9569 239.475 94.0337 238.987 93.3049 241.868C93.3049 241.868 106.035 247.679 117.015 242.698C117.015 242.698 120.611 242.552 120.805 244.017L126.247 243.968C126.198 244.017 129.405 241.722 130.377 239.573Z" fill="#36336B"/>
<path d="M140.629 12.0088C138.442 13.5226 127.559 15.0365 127.559 15.0365L127.899 21.1895L128.385 28.3192C128.385 28.3192 129.842 34.1304 130.474 35.0094C131.106 35.8884 132.32 36.8162 132.32 36.8162C132.32 36.8162 133.729 37.2557 135.964 37.3534C138.199 37.4511 141.941 35.6442 143.398 34.8629C144.904 34.0327 145.973 28.5634 145.973 28.5634H147.188C147.188 28.5634 150.006 26.903 150.006 24.4125C150.006 21.922 150.152 20.2128 148.694 19.9198C146.751 20.0663 146.216 22.3127 146.216 22.3127C142.912 17.3805 145.536 14.1575 145.536 14.1575C145.147 12.0088 140.629 12.0088 140.629 12.0088Z" fill="white"/>
<path d="M143.35 33.9631C141.843 34.7933 138.151 36.5513 135.916 36.4536C133.681 36.3559 132.272 35.9164 132.272 35.9164L131.883 39.1883C132.806 40.5068 134.021 42.216 134.652 42.8996C134.652 42.8996 146.168 34.3049 147.188 32.1074V27.6636H145.973C145.973 27.6636 144.856 33.1329 143.35 33.9631Z" fill="#ED93B1"/>
<path d="M127.607 16.3062C129.648 16.3062 134.021 16.1597 137.519 15.0853C138.977 14.6458 140.289 14.0598 141.26 13.2296C141.26 13.2296 142.086 13.2296 143.009 13.425C143.787 13.5715 144.613 13.8645 144.953 14.4016C144.953 14.4016 141.552 17.9665 146.216 22.1662C142.912 17.234 145.536 14.011 145.536 14.011C145.342 12.9855 144.176 12.4483 143.009 12.2041C141.795 11.9111 140.629 11.9111 140.629 11.9111C140.046 12.3018 138.928 12.6925 137.519 13.0831C133.535 14.1575 127.559 14.9876 127.559 14.9876L127.607 16.3062Z" fill="#ED93B1"/>
<path d="M142.961 47.2666C144.078 44.8737 145.196 42.7739 146.168 41.0647L142.961 44.8737L139.171 49.3664L137.519 47.6572L134.215 44.2877L130.814 46.7294L133.972 45.2644L137.519 48.4874L139.9 50.6849L142.475 48.2921C142.669 47.9991 142.815 47.6572 142.961 47.2666Z" fill="#0AC41E"/>
<path d="M129.162 230.636C127.51 231.174 125.955 231.369 124.498 231.418C118.23 231.467 114.586 227.462 114.586 227.462C114.586 227.462 114.343 228.439 113.711 229.806C115.655 231.613 118.91 233.518 124.449 234.299C124.352 236.936 124.109 239.426 123.72 241.673C123.575 242.503 123.429 243.333 123.235 244.066H126.198C126.198 244.066 127.656 243.04 128.871 241.673C129.454 241.038 130.037 240.305 130.328 239.622C130.425 238.987 130.182 237.034 129.891 235.178C129.891 235.031 129.842 234.885 129.842 234.69C129.551 232.541 129.162 230.636 129.162 230.636Z" fill="#27254D"/>
<path d="M116.724 112.508C122.36 105.916 119.445 80.913 119.931 69.9254C119.979 68.5093 120.125 67.3373 120.319 66.4582C121.583 60.7936 127.85 51.3199 131.057 46.6807L130.863 46.7783L130.814 46.8272C129.454 48.341 119.979 59.2309 119.202 68.6069C119.202 68.6558 119.202 68.7046 119.202 68.8023C118.376 79.0085 119.202 99.5674 116.529 109.383C116.287 110.311 116.044 111.19 115.801 112.069C116.044 112.215 116.384 112.362 116.724 112.508Z" fill="#0AC41E"/>
<path d="M93.645 65.1396C92.6247 66.4582 91.2642 68.8022 90.584 72.3182L92.1388 73.9297C92.4789 68.4603 94.6168 65.921 94.6168 65.921C94.2766 65.628 93.9851 65.3838 93.645 65.1396Z" fill="#EEEDFF"/>
<path d="M150.454 118.799C150.46 118.792 150.467 118.785 150.473 118.778L150.478 118.773C150.479 118.771 150.481 118.769 150.483 118.767C150.797 118.96 151.147 119.171 151.494 119.38L151.497 119.382L151.497 119.382L151.499 119.384C154.176 120.98 157.829 122.861 161.26 123.6C160.886 124.132 160.501 124.647 160.126 125.149C160.125 125.149 160.125 125.149 160.125 125.15C160.011 125.116 159.907 125.09 159.81 125.065C157.811 124.442 156.153 123.679 154.834 122.874C152.595 121.496 151.253 119.993 150.454 118.799Z" fill="#F3F2FF" stroke="black"/>
<defs>
<linearGradient id="paint0_linear_0_1" x1="148.128" y1="261.217" x2="147.573" y2="236.646" gradientUnits="userSpaceOnUse">
<stop stop-color="white" stop-opacity="0"/>
<stop offset="1" stop-color="#82A9FF" stop-opacity="0.21"/>
</linearGradient>
<linearGradient id="paint1_linear_0_1" x1="136.888" y1="10.1019" x2="136.888" y2="0.292938" gradientUnits="userSpaceOnUse">
<stop stop-color="#36336B"/>
<stop offset="1" stop-color="#4F4387"/>
</linearGradient>
</defs>
</svg>
