<svg width="136" height="44" viewBox="0 0 136 44" fill="none" xmlns="http://www.w3.org/2000/svg">
<rect x="0.5" y="0.5" width="135" height="43" fill="white"/>
<path d="M34.424 28V22.256H28.872V23.936H32.616C32.52 24.912 31.656 26.48 29.368 26.48C27.416 26.48 25.624 25.088 25.624 22.32C25.624 19.504 27.544 18.192 29.384 18.192C31.192 18.192 32.312 19.28 32.696 20.56L34.504 19.872C33.896 18 32.136 16.416 29.384 16.416C26.44 16.416 23.672 18.592 23.672 22.32C23.672 26.064 26.296 28.24 29.256 28.24C31.064 28.24 32.232 27.392 32.728 26.56L32.872 28H34.424ZM38.3666 23.248C38.4306 22.416 39.1026 21.52 40.2706 21.52C41.5506 21.52 42.1586 22.336 42.1906 23.248H38.3666ZM42.3986 25.28C42.1426 26.048 41.5666 26.64 40.4466 26.64C39.2946 26.64 38.3666 25.792 38.3186 24.608H44.0146C44.0306 24.576 44.0626 24.32 44.0626 24.016C44.0626 21.552 42.6546 19.968 40.2546 19.968C38.2866 19.968 36.4626 21.6 36.4626 24.064C36.4626 26.704 38.3346 28.24 40.4466 28.24C42.3186 28.24 43.5506 27.136 43.9666 25.776L42.3986 25.28ZM48.6682 17.824H46.9882V18.992C46.9882 19.68 46.6202 20.208 45.7882 20.208H45.3882V21.856H46.8282V25.776C46.8282 27.232 47.7242 28.096 49.1642 28.096C49.8362 28.096 50.1882 27.968 50.3002 27.92V26.384C50.2202 26.4 49.9162 26.448 49.6602 26.448C48.9722 26.448 48.6682 26.16 48.6682 25.472V21.856H50.2842V20.208H48.6682V17.824ZM56.6087 25.888C56.6087 27.12 57.6167 28.24 59.2487 28.24C60.5127 28.24 61.2807 27.6 61.6487 27.008C61.6487 27.632 61.7127 27.952 61.7287 28H63.4567C63.4407 27.92 63.3607 27.456 63.3607 26.752V22.88C63.3607 21.328 62.4487 19.968 60.0487 19.968C58.1287 19.968 56.9127 21.168 56.7687 22.512L58.4647 22.896C58.5447 22.112 59.0887 21.488 60.0647 21.488C61.0887 21.488 61.5367 22.016 61.5367 22.672C61.5367 22.944 61.4087 23.168 60.9607 23.232L58.9607 23.536C57.6327 23.728 56.6087 24.496 56.6087 25.888ZM59.6007 26.784C58.8647 26.784 58.4647 26.304 58.4647 25.776C58.4647 25.136 58.9287 24.816 59.5047 24.72L61.5367 24.416V24.768C61.5367 26.288 60.6407 26.784 59.6007 26.784ZM71.7811 24.08C71.7811 22.592 72.6771 21.648 73.8931 21.648C75.1091 21.648 75.9411 22.576 75.9411 24.064C75.9411 25.552 75.0931 26.56 73.8771 26.56C72.6131 26.56 71.7811 25.568 71.7811 24.08ZM77.7331 16.416H75.9251V21.12C75.6851 20.624 74.9971 20 73.6371 20C71.4451 20 69.9251 21.84 69.9251 24.08C69.9251 26.432 71.4291 28.192 73.6691 28.192C74.7731 28.192 75.5891 27.648 75.9571 26.992C75.9571 27.312 76.0051 27.824 76.0371 28H77.8131C77.7971 27.872 77.7331 27.28 77.7331 26.576V16.416ZM81.9341 23.248C81.9981 22.416 82.6701 21.52 83.8381 21.52C85.1181 21.52 85.7261 22.336 85.7581 23.248H81.9341ZM85.9661 25.28C85.7101 26.048 85.1341 26.64 84.0141 26.64C82.8621 26.64 81.9341 25.792 81.8861 24.608H87.5821C87.5981 24.576 87.6301 24.32 87.6301 24.016C87.6301 21.552 86.2221 19.968 83.8221 19.968C81.8541 19.968 80.0301 21.6 80.0301 24.064C80.0301 26.704 81.9021 28.24 84.0141 28.24C85.8861 28.24 87.1181 27.136 87.5341 25.776L85.9661 25.28ZM91.7237 28V23.376C91.7237 22.384 92.3477 21.648 93.3397 21.648C94.3957 21.648 94.8437 22.352 94.8437 23.248V28H96.6677V23.376C96.6677 22.416 97.3077 21.648 98.2837 21.648C99.3237 21.648 99.7877 22.336 99.7877 23.248V28H101.58V22.944C101.58 20.88 100.236 19.984 98.8277 19.984C97.8197 19.984 96.9077 20.336 96.2997 21.36C95.8837 20.448 94.9877 19.984 93.9637 19.984C93.0837 19.984 92.1077 20.4 91.6597 21.2V20.208H89.8837V28H91.7237ZM107.756 26.576C106.62 26.576 105.58 25.712 105.58 24.096C105.58 22.48 106.62 21.648 107.756 21.648C108.909 21.648 109.932 22.48 109.932 24.096C109.932 25.728 108.909 26.576 107.756 26.576ZM107.756 19.968C105.436 19.968 103.724 21.712 103.724 24.096C103.724 26.496 105.436 28.24 107.756 28.24C110.093 28.24 111.805 26.496 111.805 24.096C111.805 21.712 110.093 19.968 107.756 19.968Z" fill="#2F70FE"/>
<rect x="0.5" y="0.5" width="135" height="43" stroke="#2F70FE"/>
</svg>
