<svg width="322" height="256" viewBox="0 0 322 256" fill="none" xmlns="http://www.w3.org/2000/svg">
<path d="M80.4457 10.5719C79.9417 10.3077 79.4533 10.3201 79.0048 10.4606C78.7791 10.074 78.3812 9.81166 77.8309 9.73786C72.1577 9.018 66.2924 12.5454 64.9455 18.2807C63.6911 23.635 67.0093 29.5616 72.1726 31.3561C77.378 33.1726 83.6724 30.4607 85.9811 25.4444C88.5547 19.9228 85.784 13.156 80.4457 10.5719ZM73.5806 27.8537C70.1015 26.7275 67.7855 22.6683 68.6431 19.092C69.5228 15.4736 73.371 13.0359 76.9911 13.4845C77.3513 13.5123 77.6916 13.476 77.97 13.3536C78.1137 13.59 78.3437 13.7642 78.6797 13.9404C82.1899 15.6197 84.2675 19.9296 82.6211 23.6828C81.2174 26.9728 77.0176 28.9578 73.5806 27.8537Z" fill="#82A9FF" fill-opacity="0.21"/>
<path d="M91.6019 108.48C82.1484 101.591 75.2391 91.688 72.3067 80.3275C69.6334 69.8005 70.6457 58.5757 74.9007 48.6215C76.7677 51.8011 78.5926 54.9587 80.4596 58.1384C81.7116 60.2441 84.9148 58.2196 83.6628 56.1139C81.4065 52.247 79.1502 48.3802 76.8519 44.4913C76.9181 44.365 76.9623 44.2808 77.0285 44.1545C77.9535 42.4923 75.9105 40.6697 74.3199 41.6609C70.3435 44.1388 66.3252 46.5947 62.3488 49.0726C60.2855 50.3527 62.2784 53.5984 64.3638 52.2762C66.5553 50.9559 68.7268 49.5715 70.9183 48.2513C62.1047 70.5771 69.1914 96.8912 88.9781 111.237C90.9656 112.655 93.5894 109.897 91.6019 108.48Z" fill="#82A9FF" fill-opacity="0.21"/>
<path d="M56.7643 21.936C39.6216 24.8113 24.4322 34.9912 15.2188 49.8071C13.925 51.8664 17.285 53.628 18.5788 51.5687C26.9819 37.992 41.2258 28.39 56.9212 25.722C59.2855 25.2976 59.1707 21.5335 56.7643 21.936Z" fill="#82A9FF" fill-opacity="0.21"/>
<path d="M19.8186 71.0598C20.2422 65.8603 16.0517 61.0868 10.9487 60.5048C10.5885 60.477 10.2902 60.5353 10.0339 60.6157C9.7819 60.4835 9.42167 60.4557 9.0173 60.5121C3.99245 61.3131 -0.234777 65.6993 0.10414 70.9765C0.385429 75.955 4.94687 80.2252 9.91252 80.2521C14.9002 80.2368 19.3994 76.0468 19.8186 71.0598ZM10.3722 76.4135C7.31162 76.6339 4.39093 74.1365 3.9848 71.1323C3.5189 67.9357 6.0872 64.7732 9.23822 64.2781C9.43045 64.2178 9.6006 64.1997 9.79283 64.1394C9.91883 64.2055 10.0669 64.2294 10.215 64.2534C13.2007 64.5841 15.9136 66.8653 16.1253 70.036C16.2531 73.1626 13.4748 76.215 10.3722 76.4135Z" fill="#82A9FF" fill-opacity="0.21"/>
<path d="M51.2298 78.3491C51.4613 77.3969 50.7844 76.2368 49.7899 76.0911C48.287 75.8937 46.8262 75.7183 45.3233 75.5208C44.3288 75.3751 43.2993 75.909 43.0657 76.9674C42.8342 77.9196 43.5111 79.0797 44.5056 79.2253C46.0084 79.4228 47.4693 79.5982 48.9721 79.7956C49.9666 79.9413 50.9962 79.4075 51.2298 78.3491Z" fill="#82A9FF" fill-opacity="0.21"/>
<path d="M79.5605 74.2537C79.2218 73.1636 78.2095 72.8476 77.1665 72.9986C75.2065 73.3666 73.2045 73.7127 71.2446 74.0808C70.2436 74.2538 69.7074 75.583 69.9863 76.4807C70.325 77.5709 71.3374 77.8869 72.3803 77.7359C74.3403 77.3678 76.3423 77.0218 78.3022 76.6537C79.3253 76.4386 79.8395 75.1515 79.5605 74.2537Z" fill="#82A9FF" fill-opacity="0.21"/>
<path d="M62.3219 75.5759C61.7247 74.6724 60.6462 74.4827 59.7028 74.9543C59.166 75.2633 58.5872 75.5503 58.0503 75.8593C57.1711 76.3109 56.889 77.666 57.4242 78.4834C58.0214 79.387 59.0999 79.5767 60.0433 79.105C60.5801 78.796 61.159 78.509 61.6958 78.2C62.5971 77.7063 62.8572 76.3933 62.3219 75.5759Z" fill="#82A9FF" fill-opacity="0.21"/>
<path d="M25.0881 100.125C19.008 102.735 12.9478 105.408 6.86766 108.018C4.64064 108.997 5.7344 112.631 8.00341 111.673C14.0836 109.063 20.1438 106.39 26.2239 103.78C28.4509 102.801 27.3572 99.1675 25.0881 100.125Z" fill="#82A9FF" fill-opacity="0.21"/>
<path d="M58.2049 125.915C56.2441 121.076 54.2635 116.173 52.3028 111.333C51.3932 109.085 47.763 110.188 48.6505 112.478C50.6112 117.317 52.5919 122.221 54.5526 127.06C55.4842 129.266 59.1144 128.163 58.2049 125.915Z" fill="#82A9FF" fill-opacity="0.21"/>
<path d="M37.9794 1.08321C33.6191 4.70185 29.2368 8.36259 24.8345 11.9592C22.957 13.4977 25.7694 16.0995 27.605 14.539C31.9652 10.9203 36.3476 7.25958 40.7498 3.66296C42.6274 2.12442 39.8569 -0.45533 37.9794 1.08321Z" fill="#82A9FF" fill-opacity="0.21"/>
<path d="M239.523 253.521C238.962 248.201 238.456 242.866 237.894 237.546C237.675 235.505 234.456 235.514 234.675 237.555C235.237 242.875 235.743 248.21 236.304 253.53C236.488 255.551 239.742 255.562 239.523 253.521Z" fill="#82A9FF" fill-opacity="0.21"/>
<path d="M245.407 242.443C239.706 244.008 234.005 245.573 228.284 247.172C226.279 247.742 227.103 250.833 229.123 250.318C234.824 248.753 240.524 247.189 246.245 245.589C248.251 245.019 247.447 241.894 245.407 242.443Z" fill="#82A9FF" fill-opacity="0.21"/>
<path d="M227.77 236.93C219.975 230.748 214.445 222.093 212.347 212.337C210.439 203.298 211.688 193.793 215.649 185.481C217.125 188.248 218.567 190.994 220.044 193.761C221.035 195.594 223.827 193.985 222.836 192.152C221.052 188.787 219.269 185.423 217.45 182.038C217.511 181.933 217.551 181.863 217.612 181.758C218.455 180.378 216.782 178.758 215.396 179.545C211.931 181.513 208.431 183.461 204.966 185.43C203.168 186.446 204.749 189.274 206.567 188.222C208.476 187.176 210.369 186.075 212.277 185.028C204.014 203.697 209.126 226.306 225.445 239.183C227.085 240.457 229.41 238.204 227.77 236.93Z" fill="#82A9FF" fill-opacity="0.21"/>
<path d="M254.14 205.696C252.929 205.697 251.717 205.698 250.526 205.664C248.449 205.632 248.465 208.91 250.528 208.887C251.74 208.886 252.951 208.885 254.143 208.919C256.22 208.951 256.218 205.728 254.14 205.696Z" fill="#82A9FF" fill-opacity="0.21"/>
<path d="M171.532 227.527C166.274 229.534 161.031 231.597 155.774 233.604C153.847 234.359 154.651 237.485 156.612 236.75C161.87 234.742 167.113 232.68 172.371 230.673C174.297 229.917 173.493 226.792 171.532 227.527Z" fill="#82A9FF" fill-opacity="0.21"/>
<path d="M200.854 239.18C195.966 241.354 191.058 243.563 186.205 245.757C184.307 246.623 185.909 249.415 187.806 248.549C192.694 246.375 197.603 244.166 202.456 241.972C204.333 241.142 202.731 238.349 200.854 239.18Z" fill="#82A9FF" fill-opacity="0.21"/>
<path d="M272.157 206.759C269.954 206.702 267.752 206.644 265.55 206.587C263.492 206.52 263.474 209.778 265.552 209.81C267.754 209.867 269.957 209.925 272.159 209.983C274.251 210.07 274.249 206.847 272.157 206.759Z" fill="#82A9FF" fill-opacity="0.21"/>
<path d="M288.784 209.262C288.804 208.34 288.046 207.716 287.146 207.662L284.153 207.522C283.287 207.489 282.531 208.314 282.552 209.166C282.531 210.088 283.289 210.712 284.19 210.765C285.181 210.824 286.192 210.847 287.183 210.906C288.069 210.904 288.824 210.079 288.784 209.262Z" fill="#82A9FF" fill-opacity="0.21"/>
<path d="M321.256 212.555C322.274 207.726 318.972 202.878 314.328 201.644C314.133 201.578 313.953 201.568 313.752 201.592C313.592 201.546 313.467 201.521 313.307 201.475C308.509 200.993 303.733 204.586 303.131 209.421C302.534 214.165 306.022 218.934 310.728 219.737C315.365 220.5 320.269 217.168 321.256 212.555ZM311.017 216.495C308.036 215.848 305.847 212.623 306.339 209.592C306.918 206.331 310.203 204.352 313.33 204.663C313.33 204.663 313.33 204.663 313.365 204.683C313.4 204.703 313.469 204.744 313.525 204.729C316.479 205.501 318.75 208.586 318.162 211.702C317.554 214.853 314.087 217.147 311.017 216.495Z" fill="#82A9FF" fill-opacity="0.21"/>
<path d="M234.647 63.6638L234.648 63.6641C235.33 65.7664 235.699 68.0283 235.699 70.3978V207.355C235.699 219.457 225.866 229.296 213.773 229.296H109.818C97.7257 229.296 87.8926 219.457 87.8926 207.355V70.3978C87.8926 58.2964 97.7257 48.4573 109.818 48.4573H213.773C219.186 48.4573 224.181 50.4553 228.021 53.7179C231.072 56.3503 233.386 59.771 234.647 63.6638Z" fill="white" stroke="black"/>
<path d="M226.034 65.1239H115.411C112.83 65.1239 110.679 62.8637 110.679 60.0654C110.679 57.267 112.776 55.0068 115.411 55.0068H219.742C222.646 57.6437 224.851 61.1417 226.034 65.1239Z" fill="#2F70FE"/>
<path d="M139.835 197.237L117.133 174.52L110.706 180.951L133.409 203.668L139.835 197.237Z" fill="#6DED02"/>
<path d="M133.416 174.497L110.714 197.214L117.141 203.644L139.843 180.927L133.416 174.497Z" fill="#6DED02"/>
<path d="M181.167 155.85L158.465 133.133L152.038 139.564L174.74 162.281L181.167 155.85Z" fill="#6DED02"/>
<path d="M174.7 133.138L151.997 155.855L158.424 162.286L181.126 139.568L174.7 133.138Z" fill="#6DED02"/>
<path d="M127.727 132.876C119.499 132.876 112.884 139.549 112.884 147.729C112.884 155.963 119.552 162.582 127.727 162.582C135.955 162.582 142.57 155.909 142.57 147.729C142.57 139.495 135.901 132.876 127.727 132.876ZM127.727 155.909C123.209 155.909 119.552 152.249 119.552 147.729C119.552 143.209 123.209 139.549 127.727 139.549C132.244 139.549 135.901 143.209 135.901 147.729C135.901 152.249 132.244 155.909 127.727 155.909Z" fill="#6DED02"/>
<path d="M200.274 86.6497C192.046 86.6497 185.431 93.3226 185.431 101.502C185.431 109.736 192.1 116.355 200.274 116.355C208.503 116.355 215.117 109.682 215.117 101.502C215.117 93.3226 208.449 86.6497 200.274 86.6497ZM200.274 109.736C195.757 109.736 192.1 106.077 192.1 101.556C192.1 97.0358 195.757 93.3764 200.274 93.3764C204.792 93.3764 208.449 97.0358 208.449 101.556C208.449 106.077 204.792 109.736 200.274 109.736Z" fill="#6DED02"/>
<path d="M210.277 129.809C207.642 126.795 205.007 123.781 202.372 120.822C201.726 120.122 200.597 120.391 200.113 121.091C199.79 121.575 199.522 122.006 199.199 122.49C199.037 122.598 198.822 122.759 198.715 122.92C197.048 125.504 195.434 128.14 193.767 130.724C192.799 132.284 195.219 133.683 196.241 132.177C197.263 130.616 198.285 129.055 199.306 127.495C202.318 141.379 204.792 156.501 197.801 169.524C194.843 175.013 190.325 179.856 184.41 182.116C177.418 184.807 169.459 183.784 162.844 180.556C155.53 177.004 149.722 171.084 144.936 164.573C143.86 163.12 141.387 164.519 142.462 166.026C151.497 178.295 165.533 189.381 181.774 185.883C196.349 182.708 204.093 167.64 205.061 153.81C205.76 143.854 203.662 133.899 201.565 124.212C203.824 126.741 206.029 129.324 208.287 131.854C209.471 133.199 211.46 131.154 210.277 129.809Z" fill="#6DED02"/>
</svg>
